Coordinates
version=1
nRows=27
nColumns=12
inDegrees=yes

Units are S.I. units (second, meters, Newtons, ...)
Angles are in degrees

endheader
time	SC_y	SC_z	SC_x	AC_y	AC_z	AC_x	GH_y	GH_z	GH_yy	EL_x	PS_y
       0.0              -41.13          18.77          78.61          57.28         -15.31           15.7          6.167           34.9          -40.9          129.5           94.6
   0.04892              -41.13          18.77           78.6          57.28          -15.3           15.7          6.156          34.91          -40.9          129.4          94.59
   0.09784              -41.13          18.77          78.59          57.28          -15.3           15.7          6.146          34.91         -40.89          129.4          94.58
    0.1468              -41.13          18.76          78.59          57.28          -15.3          15.69          6.134          34.91         -40.89          129.4          94.58
    0.1957              -41.13          18.76          78.58          57.28          -15.3          15.69          6.122          34.92         -40.88          129.4          94.57
    0.2446              -41.13          18.76          78.57          57.27          -15.3          15.69           6.11          34.92         -40.87          129.4          94.56
    0.2935              -41.14          18.76          78.56          57.27         -15.29          15.69          6.096          34.93         -40.86          129.3          94.56
    0.3424              -41.14          18.76          78.55          57.27         -15.29          15.69          6.081          34.93         -40.86          129.3          94.55
    0.3914              -41.14          18.75          78.54          57.27         -15.29          15.68          6.065          34.94         -40.85          129.3          94.54
    0.4403              -41.14          18.75          78.52          57.27         -15.28          15.68          6.048          34.94         -40.84          129.3          94.53
    0.4892              -41.14          18.75          78.51          57.27         -15.28          15.68           6.03          34.95         -40.83          129.2          94.52
    0.5381              -41.14          18.75           78.5          57.27         -15.28          15.68          6.011          34.96         -40.82          129.2          94.51
     0.587              -41.15          18.74          78.48          57.26         -15.27          15.67           5.99          34.96          -40.8          129.2           94.5
    0.6359              -41.15          18.74          78.46          57.26         -15.27          15.67          5.967          34.97         -40.79          129.1          94.48
    0.6849              -41.15          18.74          78.45          57.26         -15.26          15.67          5.942          34.98         -40.78          129.1          94.47
    0.7338              -41.15          18.73          78.43          57.26         -15.26          15.66          5.916          34.99         -40.76          129.0          94.45
    0.7827              -41.16          18.73          78.41          57.25         -15.25          15.66          5.887           35.0         -40.75          129.0          94.44
    0.8316              -41.16          18.73          78.38          57.25         -15.25          15.65          5.855          35.01         -40.73          128.9          94.42
    0.8805              -41.16          18.72          78.36          57.25         -15.24          15.65          5.821          35.02         -40.71          128.9           94.4
    0.9295              -41.17          18.72          78.33          57.25         -15.23          15.64          5.783          35.03         -40.69          128.8          94.38
    0.9784              -41.17          18.71           78.3          57.24         -15.23          15.64          5.742          35.04         -40.66          128.7          94.35
     1.027              -41.18           18.7          78.27          57.24         -15.22          15.63          5.696          35.06         -40.64          128.6          94.33
     1.076              -41.18           18.7          78.23          57.23         -15.21          15.62          5.646          35.08         -40.61          128.6           94.3
     1.125              -41.19          18.69          78.19          57.23          -15.2          15.62           5.59          35.09         -40.58          128.5          94.27
     1.174              -41.19          18.68          78.15          57.22         -15.19          15.61          5.528          35.12         -40.54          128.4          94.23
     1.223               -41.2          18.67           78.1          57.22         -15.17           15.6          5.458          35.14          -40.5          128.2          94.19
     1.272              -41.21          18.66          78.04          57.21         -15.16          15.59          5.381          35.16         -40.46          128.1          94.15
